<svg id="visual" viewBox="0 0 960 540" width="960" height="540" xmlns="http://www.w3.org/2000/svg" xmlns:xlink="http://www.w3.org/1999/xlink" version="1.1"><path d="M0 71L13.3 70.2C26.7 69.3 53.3 67.7 80 73.2C106.7 78.7 133.3 91.3 160 93.2C186.7 95 213.3 86 240 75.2C266.7 64.3 293.3 51.7 320 47.2C346.7 42.7 373.3 46.3 400 54.3C426.7 62.3 453.3 74.7 480 81.8C506.7 89 533.3 91 560 87.5C586.7 84 613.3 75 640 63.3C666.7 51.7 693.3 37.3 720 31C746.7 24.7 773.3 26.3 800 33.5C826.7 40.7 853.3 53.3 880 53.3C906.7 53.3 933.3 40.7 946.7 34.3L960 28L960 0L946.7 0C933.3 0 906.7 0 880 0C853.3 0 826.7 0 800 0C773.3 0 746.7 0 720 0C693.3 0 666.7 0 640 0C613.3 0 586.7 0 560 0C533.3 0 506.7 0 480 0C453.3 0 426.7 0 400 0C373.3 0 346.7 0 320 0C293.3 0 266.7 0 240 0C213.3 0 186.7 0 160 0C133.3 0 106.7 0 80 0C53.3 0 26.7 0 13.3 0L0 0Z" fill="#d8f3e6"></path><path d="M0 179L13.3 177.2C26.7 175.3 53.3 171.7 80 166.3C106.7 161 133.3 154 160 146.8C186.7 139.7 213.3 132.3 240 143.2C266.7 154 293.3 183 320 195.7C346.7 208.3 373.3 204.7 400 193.8C426.7 183 453.3 165 480 161.3C506.7 157.7 533.3 168.3 560 164.7C586.7 161 613.3 143 640 142.2C666.7 141.3 693.3 157.7 720 151.3C746.7 145 773.3 116 800 114.2C826.7 112.3 853.3 137.7 880 158.5C906.7 179.3 933.3 195.7 946.7 203.8L960 212L960 26L946.7 32.3C933.3 38.7 906.7 51.3 880 51.3C853.3 51.3 826.7 38.7 800 31.5C773.3 24.3 746.7 22.7 720 29C693.3 35.3 666.7 49.7 640 61.3C613.3 73 586.7 82 560 85.5C533.3 89 506.7 87 480 79.8C453.3 72.7 426.7 60.3 400 52.3C373.3 44.3 346.7 40.7 320 45.2C293.3 49.7 266.7 62.3 240 73.2C213.3 84 186.7 93 160 91.2C133.3 89.3 106.7 76.7 80 71.2C53.3 65.7 26.7 67.3 13.3 68.2L0 69Z" fill="#baeed0"></path><path d="M0 201L13.3 202.8C26.7 204.7 53.3 208.3 80 205.7C106.7 203 133.3 194 160 193C186.7 192 213.3 199 240 207C266.7 215 293.3 224 320 227.7C346.7 231.3 373.3 229.7 400 220.7C426.7 211.7 453.3 195.3 480 200.7C506.7 206 533.3 233 560 235.7C586.7 238.3 613.3 216.7 640 214C666.7 211.3 693.3 227.7 720 218.7C746.7 209.7 773.3 175.3 800 172.7C826.7 170 853.3 199 880 218C906.7 237 933.3 246 946.7 250.5L960 255L960 210L946.7 201.8C933.3 193.7 906.7 177.3 880 156.5C853.3 135.7 826.7 110.3 800 112.2C773.3 114 746.7 143 720 149.3C693.3 155.7 666.7 139.3 640 140.2C613.3 141 586.7 159 560 162.7C533.3 166.3 506.7 155.7 480 159.3C453.3 163 426.7 181 400 191.8C373.3 202.7 346.7 206.3 320 193.7C293.3 181 266.7 152 240 141.2C213.3 130.3 186.7 137.7 160 144.8C133.3 152 106.7 159 80 164.3C53.3 169.7 26.7 173.3 13.3 175.2L0 177Z" fill="#9fe7b5"></path><path d="M0 217L13.3 224.2C26.7 231.3 53.3 245.7 80 243C106.7 240.3 133.3 220.7 160 213.5C186.7 206.3 213.3 211.7 240 220.7C266.7 229.7 293.3 242.3 320 251.3C346.7 260.3 373.3 265.7 400 256.7C426.7 247.7 453.3 224.3 480 226.2C506.7 228 533.3 255 560 259.5C586.7 264 613.3 246 640 242.3C666.7 238.7 693.3 249.3 720 242.2C746.7 235 773.3 210 800 211C826.7 212 853.3 239 880 254.2C906.7 269.3 933.3 272.7 946.7 274.3L960 276L960 253L946.7 248.5C933.3 244 906.7 235 880 216C853.3 197 826.7 168 800 170.7C773.3 173.3 746.7 207.7 720 216.7C693.3 225.7 666.7 209.3 640 212C613.3 214.7 586.7 236.3 560 233.7C533.3 231 506.7 204 480 198.7C453.3 193.3 426.7 209.7 400 218.7C373.3 227.7 346.7 229.3 320 225.7C293.3 222 266.7 213 240 205C213.3 197 186.7 190 160 191C133.3 192 106.7 201 80 203.7C53.3 206.3 26.7 202.7 13.3 200.8L0 199Z" fill="#88df97"></path><path d="M0 239L13.3 246.2C26.7 253.3 53.3 267.7 80 266.7C106.7 265.7 133.3 249.3 160 243.8C186.7 238.3 213.3 243.7 240 251.8C266.7 260 293.3 271 320 281.8C346.7 292.7 373.3 303.3 400 294.3C426.7 285.3 453.3 256.7 480 254.8C506.7 253 533.3 278 560 279.8C586.7 281.7 613.3 260.3 640 257.7C666.7 255 693.3 271 720 267.3C746.7 263.7 773.3 240.3 800 241.3C826.7 242.3 853.3 267.7 880 284.8C906.7 302 933.3 311 946.7 315.5L960 320L960 274L946.7 272.3C933.3 270.7 906.7 267.3 880 252.2C853.3 237 826.7 210 800 209C773.3 208 746.7 233 720 240.2C693.3 247.3 666.7 236.7 640 240.3C613.3 244 586.7 262 560 257.5C533.3 253 506.7 226 480 224.2C453.3 222.3 426.7 245.7 400 254.7C373.3 263.7 346.7 258.3 320 249.3C293.3 240.3 266.7 227.7 240 218.7C213.3 209.7 186.7 204.3 160 211.5C133.3 218.7 106.7 238.3 80 241C53.3 243.7 26.7 229.3 13.3 222.2L0 215Z" fill="#76d676"></path><path d="M0 276L13.3 281.5C26.7 287 53.3 298 80 292.7C106.7 287.3 133.3 265.7 160 261.2C186.7 256.7 213.3 269.3 240 280.2C266.7 291 293.3 300 320 311.7C346.7 323.3 373.3 337.7 400 328.7C426.7 319.7 453.3 287.3 480 287.3C506.7 287.3 533.3 319.7 560 318.7C586.7 317.7 613.3 283.3 640 278C666.7 272.7 693.3 296.3 720 300C746.7 303.7 773.3 287.3 800 289C826.7 290.7 853.3 310.3 880 323C906.7 335.7 933.3 341.3 946.7 344.2L960 347L960 318L946.7 313.5C933.3 309 906.7 300 880 282.8C853.3 265.7 826.7 240.3 800 239.3C773.3 238.3 746.7 261.7 720 265.3C693.3 269 666.7 253 640 255.7C613.3 258.3 586.7 279.7 560 277.8C533.3 276 506.7 251 480 252.8C453.3 254.7 426.7 283.3 400 292.3C373.3 301.3 346.7 290.7 320 279.8C293.3 269 266.7 258 240 249.8C213.3 241.7 186.7 236.3 160 241.8C133.3 247.3 106.7 263.7 80 264.7C53.3 265.7 26.7 251.3 13.3 244.2L0 237Z" fill="#76d676"></path><path d="M0 341L13.3 343.7C26.7 346.3 53.3 351.7 80 347.2C106.7 342.7 133.3 328.3 160 319.3C186.7 310.3 213.3 306.7 240 314.8C266.7 323 293.3 343 320 354.8C346.7 366.7 373.3 370.3 400 358.7C426.7 347 453.3 320 480 326.2C506.7 332.3 533.3 371.7 560 374.3C586.7 377 613.3 343 640 331.3C666.7 319.7 693.3 330.3 720 333C746.7 335.7 773.3 330.3 800 339.3C826.7 348.3 853.3 371.7 880 385.2C906.7 398.7 933.3 402.3 946.7 404.2L960 406L960 345L946.7 342.2C933.3 339.3 906.7 333.7 880 321C853.3 308.3 826.7 288.7 800 287C773.3 285.3 746.7 301.7 720 298C693.3 294.3 666.7 270.7 640 276C613.3 281.3 586.7 315.7 560 316.7C533.3 317.7 506.7 285.3 480 285.3C453.3 285.3 426.7 317.7 400 326.7C373.3 335.7 346.7 321.3 320 309.7C293.3 298 266.7 289 240 278.2C213.3 267.3 186.7 254.7 160 259.2C133.3 263.7 106.7 285.3 80 290.7C53.3 296 26.7 285 13.3 279.5L0 274Z" fill="#76d676"></path><path d="M0 455L13.3 459.5C26.7 464 53.3 473 80 472C106.7 471 133.3 460 160 454.5C186.7 449 213.3 449 240 450.8C266.7 452.7 293.3 456.3 320 455.5C346.7 454.7 373.3 449.3 400 453C426.7 456.7 453.3 469.3 480 475.7C506.7 482 533.3 482 560 474.7C586.7 467.3 613.3 452.7 640 444.5C666.7 436.3 693.3 434.7 720 437.5C746.7 440.3 773.3 447.7 800 453C826.7 458.3 853.3 461.7 880 463.3C906.7 465 933.3 465 946.7 465L960 465L960 404L946.7 402.2C933.3 400.3 906.7 396.7 880 383.2C853.3 369.7 826.7 346.3 800 337.3C773.3 328.3 746.7 333.7 720 331C693.3 328.3 666.7 317.7 640 329.3C613.3 341 586.7 375 560 372.3C533.3 369.7 506.7 330.3 480 324.2C453.3 318 426.7 345 400 356.7C373.3 368.3 346.7 364.7 320 352.8C293.3 341 266.7 321 240 312.8C213.3 304.7 186.7 308.3 160 317.3C133.3 326.3 106.7 340.7 80 345.2C53.3 349.7 26.7 344.3 13.3 341.7L0 339Z" fill="#88df97"></path><path d="M0 492L13.3 493.8C26.7 495.7 53.3 499.3 80 494.8C106.7 490.3 133.3 477.7 160 472.3C186.7 467 213.3 469 240 470.8C266.7 472.7 293.3 474.3 320 474.3C346.7 474.3 373.3 472.7 400 475.3C426.7 478 453.3 485 480 489.5C506.7 494 533.3 496 560 492.5C586.7 489 613.3 480 640 474.5C666.7 469 693.3 467 720 470.5C746.7 474 773.3 483 800 489.3C826.7 495.7 853.3 499.3 880 497.7C906.7 496 933.3 489 946.7 485.5L960 482L960 463L946.7 463C933.3 463 906.7 463 880 461.3C853.3 459.7 826.7 456.3 800 451C773.3 445.7 746.7 438.3 720 435.5C693.3 432.7 666.7 434.3 640 442.5C613.3 450.7 586.7 465.3 560 472.7C533.3 480 506.7 480 480 473.7C453.3 467.3 426.7 454.7 400 451C373.3 447.3 346.7 452.7 320 453.5C293.3 454.3 266.7 450.7 240 448.8C213.3 447 186.7 447 160 452.5C133.3 458 106.7 469 80 470C53.3 471 26.7 462 13.3 457.5L0 453Z" fill="#9fe7b5"></path><path d="M0 525L13.3 524C26.7 523 53.3 521 80 517.3C106.7 513.7 133.3 508.3 160 505.7C186.7 503 213.3 503 240 501.2C266.7 499.3 293.3 495.7 320 494.8C346.7 494 373.3 496 400 499.7C426.7 503.3 453.3 508.7 480 510.5C506.7 512.3 533.3 510.7 560 508.8C586.7 507 613.3 505 640 504C666.7 503 693.3 503 720 506.7C746.7 510.3 773.3 517.7 800 520.3C826.7 523 853.3 521 880 520C906.7 519 933.3 519 946.7 519L960 519L960 480L946.7 483.5C933.3 487 906.7 494 880 495.7C853.3 497.3 826.7 493.7 800 487.3C773.3 481 746.7 472 720 468.5C693.3 465 666.7 467 640 472.5C613.3 478 586.7 487 560 490.5C533.3 494 506.7 492 480 487.5C453.3 483 426.7 476 400 473.3C373.3 470.7 346.7 472.3 320 472.3C293.3 472.3 266.7 470.7 240 468.8C213.3 467 186.7 465 160 470.3C133.3 475.7 106.7 488.3 80 492.8C53.3 497.3 26.7 493.7 13.3 491.8L0 490Z" fill="#baeed0"></path><path d="M0 541L13.3 541C26.7 541 53.3 541 80 541C106.7 541 133.3 541 160 541C186.7 541 213.3 541 240 541C266.7 541 293.3 541 320 541C346.7 541 373.3 541 400 541C426.7 541 453.3 541 480 541C506.7 541 533.3 541 560 541C586.7 541 613.3 541 640 541C666.7 541 693.3 541 720 541C746.7 541 773.3 541 800 541C826.7 541 853.3 541 880 541C906.7 541 933.3 541 946.7 541L960 541L960 517L946.7 517C933.3 517 906.7 517 880 518C853.3 519 826.7 521 800 518.3C773.3 515.7 746.7 508.3 720 504.7C693.3 501 666.7 501 640 502C613.3 503 586.7 505 560 506.8C533.3 508.7 506.7 510.3 480 508.5C453.3 506.7 426.7 501.3 400 497.7C373.3 494 346.7 492 320 492.8C293.3 493.7 266.7 497.3 240 499.2C213.3 501 186.7 501 160 503.7C133.3 506.3 106.7 511.7 80 515.3C53.3 519 26.7 521 13.3 522L0 523Z" fill="#d8f3e6"></path></svg>