<svg width="1440" height="810" viewBox="0 0 1440 810" fill="none" xmlns="http://www.w3.org/2000/svg">
<g clip-path="url(#clip0_19_359)">
<path d="M1440 775.5L1421.55 777C1402.95 778.5 1366.05 781.5 1329 784.2C1291.95 787.05 1255.05 789.45 1218 789.45C1180.95 789.45 1144.05 787.05 1107.3 785.7C1070.55 784.5 1033.95 784.5 997.2 784.5C960.45 784.5 923.55 784.5 886.5 781.8C849.45 778.95 812.55 773.55 775.5 774.75C738.45 775.95 701.55 784.05 664.5 784.05C627.45 784.05 590.55 775.95 553.5 773.25C516.45 770.55 479.55 772.95 442.8 775.8C406.05 778.5 369.45 781.5 332.7 781.5C295.95 781.5 259.05 778.5 222 777C184.95 775.5 148.05 775.5 111 774.3C73.9498 772.95 37.0498 770.55 18.4498 769.2L-0.000118399 768L-0.00012207 810L18.4498 810C37.0498 810 73.9498 810 111 810C148.05 810 184.95 810 222 810C259.05 810 295.95 810 332.7 810C369.45 810 406.05 810 442.8 810C479.55 810 516.45 810 553.5 810C590.55 810 627.45 810 664.5 810C701.55 810 738.45 810 775.5 810C812.55 810 849.45 810 886.5 810C923.55 810 960.45 810 997.2 810C1033.95 810 1070.55 810 1107.3 810C1144.05 810 1180.95 810 1218 810C1255.05 810 1291.95 810 1329 810C1366.05 810 1402.95 810 1421.55 810L1440 810L1440 775.5Z" fill="#76D676"/>
<path d="M1440 744L1421.55 748.05C1402.95 751.95 1366.05 760.05 1329 763.95C1291.95 768 1255.05 768 1218 763.95C1180.95 760.05 1144.05 751.95 1107.3 751.95C1070.55 751.95 1033.95 760.05 997.2 763.95C960.45 768 923.55 768 886.5 760.05C849.45 751.95 812.55 736.05 775.5 734.7C738.45 733.5 701.55 747 664.5 749.55C627.45 751.95 590.55 743.55 553.5 740.7C516.45 738 479.55 741 442.8 743.7C406.05 746.55 369.45 748.95 332.7 748.95C295.95 748.95 259.05 746.55 222 746.55C184.95 746.55 148.05 748.95 111 750.3C73.95 751.5 37.0499 751.5 18.4498 751.5L-0.00011849 751.5L-0.000120195 771L18.4498 772.2C37.0499 773.55 73.95 775.95 111 777.3C148.05 778.5 184.95 778.5 222 780C259.05 781.5 295.95 784.5 332.7 784.5C369.45 784.5 406.05 781.5 442.8 778.8C479.55 775.95 516.45 773.55 553.5 776.25C590.55 778.95 627.45 787.05 664.5 787.05C701.55 787.05 738.45 778.95 775.5 777.75C812.55 776.55 849.45 781.95 886.5 784.8C923.55 787.5 960.45 787.5 997.2 787.5C1033.95 787.5 1070.55 787.5 1107.3 788.7C1144.05 790.05 1180.95 792.45 1218 792.45C1255.05 792.45 1291.95 790.05 1329 787.2C1366.05 784.5 1402.95 781.5 1421.55 780L1440 778.5L1440 744Z" fill="#7CD983"/>
<path d="M1440 720L1421.55 721.2C1402.95 722.55 1366.05 724.95 1329 727.5C1291.95 730.05 1255.05 732.45 1218 723C1180.95 713.55 1144.05 691.95 1107.3 688.05C1070.55 684 1033.95 697.5 997.2 704.25C960.45 711 923.55 711 886.5 703.05C849.45 694.95 812.55 679.05 775.5 675C738.45 670.95 701.55 679.05 664.5 682.95C627.45 687 590.55 687 553.5 691.05C516.45 694.95 479.55 703.05 442.8 704.25C406.05 705.45 369.45 700.05 332.7 696C295.95 691.95 259.05 689.55 222 693.75C184.95 697.95 148.05 709.05 111 711.75C73.95 714.45 37.0499 709.05 18.4498 706.2L-0.000116258 703.5L-0.000120716 754.5L18.4498 754.5C37.0499 754.5 73.95 754.5 111 753.3C148.05 751.95 184.95 749.55 222 749.55C259.05 749.55 295.95 751.95 332.7 751.95C369.45 751.95 406.05 749.55 442.8 746.7C479.55 744 516.45 741 553.5 743.7C590.55 746.55 627.45 754.95 664.5 752.55C701.55 750 738.45 736.5 775.5 737.7C812.55 739.05 849.45 754.95 886.5 763.05C923.55 771 960.45 771 997.2 766.95C1033.95 763.05 1070.55 754.95 1107.3 754.95C1144.05 754.95 1180.95 763.05 1218 766.95C1255.05 771 1291.95 771 1329 766.95C1366.05 763.05 1402.95 754.95 1421.55 751.05L1440 747L1440 720Z" fill="#83DD8F"/>
<path d="M1440 582L1421.55 569.7C1402.95 557.55 1366.05 532.95 1329 532.95C1291.95 532.95 1255.05 557.55 1218 565.8C1180.95 574.05 1144.05 565.95 1107.3 562.05C1070.55 558 1033.95 558 997.2 551.25C960.45 544.5 923.55 531 886.5 531C849.45 531 812.55 544.5 775.5 558C738.45 571.5 701.55 585 664.5 590.25C627.45 595.5 590.55 592.5 553.5 591C516.45 589.5 479.55 589.5 442.8 588.3C406.05 586.95 369.45 584.55 332.7 583.2C295.95 582 259.05 582 222 591.45C184.95 601.05 148.05 619.95 111 610.5C73.95 601.05 37.0499 562.95 18.4498 544.05L-0.000103905 525L-0.000119772 706.5L18.4498 709.2C37.0499 712.05 73.95 717.45 111 714.75C148.05 712.05 184.95 700.95 222 696.75C259.05 692.55 295.95 694.95 332.7 699C369.45 703.05 406.05 708.45 442.8 707.25C479.55 706.05 516.45 697.95 553.5 694.05C590.55 690 627.45 690 664.5 685.95C701.55 682.05 738.45 673.95 775.5 678C812.55 682.05 849.45 697.95 886.5 706.05C923.55 714 960.45 714 997.2 707.25C1033.95 700.5 1070.55 687 1107.3 691.05C1144.05 694.95 1180.95 716.55 1218 726C1255.05 735.45 1291.95 733.05 1329 730.5C1366.05 727.95 1402.95 725.55 1421.55 724.2L1440 723L1440 582Z" fill="#8AE09A"/>
<path d="M1440 532.5L1421.55 520.5C1402.95 508.5 1366.05 484.5 1329 484.5C1291.95 484.5 1255.05 508.5 1218 515.25C1180.95 522 1144.05 511.5 1107.3 507.45C1070.55 503.55 1033.95 505.95 997.2 499.2C960.45 492.45 923.55 476.55 886.5 480.45C849.45 484.5 812.55 508.5 775.5 522C738.45 535.5 701.55 538.5 664.5 537.3C627.45 535.95 590.55 530.55 553.5 533.25C516.45 535.95 479.55 547.05 442.8 552.45C406.05 558 369.45 558 332.7 549.75C295.95 541.5 259.05 525 222 531.75C184.95 538.5 148.05 568.5 111 561.75C73.95 555 37.0499 511.5 18.4498 489.75L-0.000109125 468L-0.000114371 528L18.4498 547.05C37.0499 565.95 73.95 604.05 111 613.5C148.05 622.95 184.95 604.05 222 594.45C259.05 585 295.95 585 332.7 586.2C369.45 587.55 406.05 589.95 442.8 591.3C479.55 592.5 516.45 592.5 553.5 594C590.55 595.5 627.45 598.5 664.5 593.25C701.55 588 738.45 574.5 775.5 561C812.55 547.5 849.45 534 886.5 534C923.55 534 960.45 547.5 997.2 554.25C1033.95 561 1070.55 561 1107.3 565.05C1144.05 568.95 1180.95 577.05 1218 568.8C1255.05 560.55 1291.95 535.95 1329 535.95C1366.05 535.95 1402.95 560.55 1421.55 572.7L1440 585L1440 532.5Z" fill="#92E3A5"/>
<path d="M1440 468L1421.55 457.2C1402.95 446.55 1366.05 424.95 1329 429C1291.95 433.05 1255.05 462.45 1218 473.25C1180.95 484.05 1144.05 475.95 1107.3 466.8C1070.55 457.5 1033.95 447 997.2 435C960.45 423 923.55 409.5 886.5 412.05C849.45 414.45 812.55 433.05 775.5 447.75C738.45 462.45 701.55 473.55 664.5 475.05C627.45 476.55 590.55 468.45 553.5 468.45C516.45 468.45 479.55 476.55 442.8 487.2C406.05 498 369.45 511.5 332.7 508.8C295.95 505.95 259.05 487.05 222 485.7C184.95 484.5 148.05 501 111 487.5C73.95 474 37.0499 430.5 18.4498 408.75L-0.000106445 387L-0.000113789 471L18.4498 492.75C37.0499 514.5 73.95 558 111 564.75C148.05 571.5 184.95 541.5 222 534.75C259.05 528 295.95 544.5 332.7 552.75C369.45 561 406.05 561 442.8 555.45C479.55 550.05 516.45 538.95 553.5 536.25C590.55 533.55 627.45 538.95 664.5 540.3C701.55 541.5 738.45 538.5 775.5 525C812.55 511.5 849.45 487.5 886.5 483.45C923.55 479.55 960.45 495.45 997.2 502.2C1033.95 508.95 1070.55 506.55 1107.3 510.45C1144.05 514.5 1180.95 525 1218 518.25C1255.05 511.5 1291.95 487.5 1329 487.5C1366.05 487.5 1402.95 511.5 1421.55 523.5L1440 535.5L1440 468Z" fill="#9BE6B0"/>
<path d="M1440 322.5L1421.55 318.45C1402.95 314.55 1366.05 306.45 1329 297C1291.95 287.55 1255.05 276.45 1218 254.7C1180.95 232.95 1144.05 200.55 1107.3 203.25C1070.55 205.95 1033.95 244.05 997.2 265.8C960.45 287.55 923.55 292.95 886.5 276.75C849.45 260.55 812.55 222.45 775.5 225.3C738.45 228 701.55 271.5 664.5 285C627.45 298.5 590.55 282 553.5 269.7C516.45 257.55 479.55 249.45 442.8 248.25C406.05 247.05 369.45 252.45 332.7 255.3C295.95 258 259.05 258 222 262.05C184.95 265.95 148.05 274.05 111 279.3C73.95 284.55 37.0499 286.95 18.4498 288.3L-0.000102606 289.5L-0.000111392 390L18.4498 411.75C37.0499 433.5 73.95 477 111 490.5C148.05 504 184.95 487.5 222 488.7C259.05 490.05 295.95 508.95 332.7 511.8C369.45 514.5 406.05 501 442.8 490.2C479.55 479.55 516.45 471.45 553.5 471.45C590.55 471.45 627.45 479.55 664.5 478.05C701.55 476.55 738.45 465.45 775.5 450.75C812.55 436.05 849.45 417.45 886.5 415.05C923.55 412.5 960.45 426 997.2 438C1033.95 450 1070.55 460.5 1107.3 469.8C1144.05 478.95 1180.95 487.05 1218 476.25C1255.05 465.45 1291.95 436.05 1329 432C1366.05 427.95 1402.95 449.55 1421.55 460.2L1440 471L1440 322.5Z" fill="#A4E8BA"/>
<path d="M1440 225L1421.55 222.3C1402.95 219.45 1366.05 214.05 1329 204.45C1291.95 195 1255.05 181.5 1218 165.45C1180.95 149.55 1144.05 130.95 1107.3 135.3C1070.55 139.5 1033.95 166.5 997.2 182.55C960.45 198.45 923.55 203.55 886.5 192.45C849.45 181.5 812.55 154.5 775.5 154.5C738.45 154.5 701.55 181.5 664.5 193.8C627.45 205.95 590.55 203.55 553.5 199.5C516.45 195.45 479.55 190.05 442.8 186C406.05 181.95 369.45 179.55 332.7 168.75C295.95 157.95 259.05 139.05 222 140.25C184.95 141.45 148.05 163.05 111 168.45C73.95 174 37.0499 163.5 18.4498 158.25L-0.00010699 153L-0.000119185 292.5L18.4498 291.3C37.0499 289.95 73.95 287.55 111 282.3C148.05 277.05 184.95 268.95 222 265.05C259.05 261 295.95 261 332.7 258.3C369.45 255.45 406.05 250.05 442.8 251.25C479.55 252.45 516.45 260.55 553.5 272.7C590.55 285 627.45 301.5 664.5 288C701.55 274.5 738.45 231 775.5 228.3C812.55 225.45 849.45 263.55 886.5 279.75C923.55 295.95 960.45 290.55 997.2 268.8C1033.95 247.05 1070.55 208.95 1107.3 206.25C1144.05 203.55 1180.95 235.95 1218 257.7C1255.05 279.45 1291.95 290.55 1329 300C1366.05 309.45 1402.95 317.55 1421.55 321.45L1440 325.5L1440 225Z" fill="#ADEBC4"/>
<path d="M1440 177L1421.55 175.5C1402.95 174 1366.05 171 1329 164.25C1291.95 157.5 1255.05 147 1218 133.5C1180.95 120 1144.05 103.5 1107.3 107.55C1070.55 111.45 1033.95 136.05 997.2 148.2C960.45 160.5 923.55 160.5 886.5 152.55C849.45 144.45 812.55 128.55 775.5 127.2C738.45 126 701.55 139.5 664.5 144.75C627.45 150 590.55 147 553.5 142.8C516.45 138.45 479.55 133.05 442.8 133.05C406.05 133.05 369.45 138.45 332.7 134.55C295.95 130.5 259.05 117 222 115.8C184.95 114.45 148.05 125.55 111 129.45C73.95 133.5 37.0499 130.5 18.4498 129L-0.000113284 127.5L-0.000115776 156L18.4498 161.25C37.0499 166.5 73.95 177 111 171.45C148.05 166.05 184.95 144.45 222 143.25C259.05 142.05 295.95 160.95 332.7 171.75C369.45 182.55 406.05 184.95 442.8 189C479.55 193.05 516.45 198.45 553.5 202.5C590.55 206.55 627.45 208.95 664.5 196.8C701.55 184.5 738.45 157.5 775.5 157.5C812.55 157.5 849.45 184.5 886.5 195.45C923.55 206.55 960.45 201.45 997.2 185.55C1033.95 169.5 1070.55 142.5 1107.3 138.3C1144.05 133.95 1180.95 152.55 1218 168.45C1255.05 184.5 1291.95 198 1329 207.45C1366.05 217.05 1402.95 222.45 1421.55 225.3L1440 228L1440 177Z" fill="#B7EDCD"/>
<path d="M1440 87L1421.55 87C1402.95 87 1366.05 87 1329 87C1291.95 87 1255.05 87 1218 79.05C1180.95 70.95 1144.05 55.05 1107.3 49.8C1070.55 44.55 1033.95 49.95 997.2 60.75C960.45 71.55 923.55 87.45 886.5 90.3C849.45 93 812.55 82.4999 775.5 78.4499C738.45 74.5499 701.55 76.9499 664.5 76.9499C627.45 76.9499 590.55 74.5499 553.5 71.6999C516.45 68.9999 479.55 65.9999 442.8 71.2499C406.05 76.4999 369.45 89.9999 332.7 89.9999C295.95 89.9999 259.05 76.4999 222 69.7499C184.95 62.9999 148.05 62.9999 111 64.4999C73.95 65.9999 37.0499 68.9999 18.4498 70.4999L-0.000112629 71.9999L-0.000117743 130.5L18.4498 132C37.0499 133.5 73.95 136.5 111 132.45C148.05 128.55 184.95 117.45 222 118.8C259.05 120 295.95 133.5 332.7 137.55C369.45 141.45 406.05 136.05 442.8 136.05C479.55 136.05 516.45 141.45 553.5 145.8C590.55 150 627.45 153 664.5 147.75C701.55 142.5 738.45 129 775.5 130.2C812.55 131.55 849.45 147.45 886.5 155.55C923.55 163.5 960.45 163.5 997.2 151.2C1033.95 139.05 1070.55 114.45 1107.3 110.55C1144.05 106.5 1180.95 123 1218 136.5C1255.05 150 1291.95 160.5 1329 167.25C1366.05 174 1402.95 177 1421.55 178.5L1440 180L1440 87Z" fill="#C2EFD6"/>
<path d="M1440 39.0002L1421.55 36.3002C1402.95 33.4502 1366.05 28.0502 1329 26.7002C1291.95 25.5002 1255.05 28.5002 1218 27.3002C1180.95 25.9502 1144.05 20.5502 1107.3 17.7002C1070.55 15.0002 1033.95 15.0002 997.2 20.2502C960.45 25.5002 923.55 36.0002 886.5 36.0002C849.45 36.0002 812.55 25.5002 775.5 20.2501C738.45 15.0001 701.55 15.0001 664.5 17.7001C627.45 20.5501 590.55 25.9501 553.5 31.2001C516.45 36.4501 479.55 41.5501 442.8 43.9501C406.05 46.5001 369.45 46.5001 332.7 43.9501C295.95 41.5501 259.05 36.4501 222 36.4501C184.95 36.4501 148.05 41.5501 111 40.0501C73.95 38.5501 37.0499 30.4501 18.4498 26.5501L-0.000115842 22.5001L-0.000120432 75.0001L18.4498 73.5001C37.0499 72.0001 73.95 69.0001 111 67.5001C148.05 66.0001 184.95 66.0001 222 72.7501C259.05 79.5001 295.95 93.0001 332.7 93.0001C369.45 93.0001 406.05 79.5001 442.8 74.2501C479.55 69.0001 516.45 72.0001 553.5 74.7001C590.55 77.5501 627.45 79.9501 664.5 79.9501C701.55 79.9501 738.45 77.5501 775.5 81.4501C812.55 85.5001 849.45 96.0002 886.5 93.3002C923.55 90.4502 960.45 74.5502 997.2 63.7502C1033.95 52.9502 1070.55 47.5502 1107.3 52.8002C1144.05 58.0502 1180.95 73.9502 1218 82.0502C1255.05 90.0002 1291.95 90.0002 1329 90.0002C1366.05 90.0002 1402.95 90.0002 1421.55 90.0002L1440 90.0002L1440 39.0002Z" fill="#CDF1DE"/>
<path d="M1440 -1.49993L1421.55 -1.49993C1402.95 -1.49993 1366.05 -1.49993 1329 -1.49994C1291.95 -1.49994 1255.05 -1.49994 1218 -1.49995C1180.95 -1.49995 1144.05 -1.49995 1107.3 -1.49996C1070.55 -1.49996 1033.95 -1.49996 997.2 -1.49997C960.45 -1.49997 923.55 -1.49997 886.5 -1.49998C849.45 -1.49998 812.55 -1.49998 775.5 -1.49999C738.45 -1.49999 701.55 -1.49999 664.5 -1.5C627.45 -1.5 590.55 -1.5 553.5 -1.50001C516.45 -1.50001 479.55 -1.50001 442.8 -1.50001C406.05 -1.50002 369.45 -1.50002 332.7 -1.50002C295.95 -1.50003 259.05 -1.50003 222 -1.50003C184.95 -1.50004 148.05 -1.50004 111 -1.50004C73.95 -1.50005 37.0499 -1.50005 18.4498 -1.50005L-0.000117667 -1.50005L-0.000120028 25.4999L18.4498 29.55C37.0499 33.45 73.95 41.55 111 43.05C148.05 44.55 184.95 39.4499 222 39.4499C259.05 39.4499 295.95 44.5499 332.7 46.95C369.45 49.5 406.05 49.5 442.8 46.95C479.55 44.55 516.45 39.45 553.5 34.2C590.55 28.95 627.45 23.55 664.5 20.7C701.55 18 738.45 18 775.5 23.25C812.55 28.5 849.45 39 886.5 39C923.55 39 960.45 28.5 997.2 23.25C1033.95 18 1070.55 18 1107.3 20.7C1144.05 23.55 1180.95 28.9501 1218 30.3001C1255.05 31.5001 1291.95 28.5 1329 29.7C1366.05 31.05 1402.95 36.4501 1421.55 39.3001L1440 42.0001L1440 -1.49993Z" fill="#D8F3E6"/>
</g>
<defs>
<clipPath id="clip0_19_359">
<rect width="1440" height="810" fill="white" transform="translate(1440 810) rotate(-180)"/>
</clipPath>
</defs>
</svg>
