<svg width="1440" height="810" viewBox="0 0 1440 810" fill="none" xmlns="http://www.w3.org/2000/svg" preserveAspectRatio="xMidYMid slice">
<g clip-path="url(#clip0_6_61)">
<path d="M1440 0H0V810.125H1440V0Z" fill="#D8F3E6"/>
<path d="M1440 729.113C1387.2 676.604 1334.55 623.946 1277.7 605.794C1220.85 587.491 1159.95 603.543 1098.75 591.091C1037.55 578.789 976.05 537.983 964.8 475.273C953.55 412.564 992.7 327.801 951.6 282.044C910.5 236.286 789.3 229.235 735.9 188.729C682.35 148.223 696.75 74.1115 711 0H1440V729.113Z" fill="#CBF1DE"/>
<path d="M1440 607.594C1396.05 563.787 1352.1 519.98 1304.7 504.828C1257.45 489.526 1206.6 502.878 1155.6 492.676C1104.6 482.324 1053.3 448.269 1044 396.061C1034.7 343.703 1067.25 273.192 1032.9 235.086C998.7 196.83 897.75 190.98 853.2 157.224C808.65 123.469 820.65 61.8095 832.5 0H1440V607.594Z" fill="#B4ECCB"/>
<path d="M1440 486.075C1404.9 450.97 1369.65 416.014 1331.85 403.862C1293.9 391.711 1253.25 402.362 1212.45 394.111C1171.65 385.86 1130.7 358.705 1123.2 316.849C1115.7 274.992 1141.8 218.584 1114.35 187.979C1087.05 157.524 1006.2 152.874 970.5 125.869C934.95 98.7152 944.4 49.3576 954 0H1440V486.075Z" fill="#9FE7B5"/>
<path d="M1440 364.556C1413.6 338.302 1387.2 312.048 1358.85 302.897C1330.5 293.745 1300.05 301.697 1269.45 295.546C1238.7 289.395 1207.95 268.992 1202.4 237.637C1196.85 206.282 1216.35 163.975 1195.8 141.022C1175.25 118.068 1114.65 114.618 1087.95 94.3646C1061.25 74.1115 1068.3 37.0557 1075.5 0H1440V364.556Z" fill="#8CE09E"/>
<path d="M1440 243.038C1422.45 225.485 1404.9 207.932 1385.85 201.931C1366.95 195.78 1346.7 201.181 1326.3 196.98C1305.9 192.93 1285.35 179.278 1281.6 158.424C1277.85 137.571 1290.9 109.217 1277.25 94.0645C1263.45 78.7622 1223.1 76.3618 1205.25 62.8597C1187.4 49.3576 1192.2 24.7538 1197 0H1440V243.038Z" fill="#7DDA84"/>
<path d="M1440 121.519C1431.15 112.817 1422.45 103.966 1413 100.966C1403.55 97.9651 1393.35 100.516 1383.15 98.5652C1372.95 96.4649 1362.6 89.7139 1360.8 79.2122C1359 68.7106 1365.45 54.6084 1358.55 46.9573C1351.8 39.3061 1331.55 38.2559 1322.7 31.5049C1313.7 24.7538 1316.1 12.3019 1318.5 0H1440V121.519Z" fill="#76D676"/>
<path d="M0 81.0125C61.65 87.7636 123.3 94.5146 188.7 105.916C254.1 117.168 323.25 133.221 357.75 190.379C392.25 247.688 392.1 346.103 398.85 411.214C405.6 476.324 419.4 508.128 478.05 534.082C536.7 560.036 640.35 580.29 689.7 625.297C739.05 670.304 733.95 740.214 729 810.125H0V81.0125Z" fill="#CBF1DE"/>
<path d="M0 202.531C51.3 208.082 102.75 213.783 157.2 223.234C211.8 232.686 269.4 246.038 298.05 293.745C326.85 341.303 326.7 423.515 332.4 477.674C337.95 531.982 349.5 558.386 398.4 580.14C447.3 601.743 533.7 618.546 574.8 656.051C615.75 693.707 611.7 751.916 607.5 810.125H0V202.531Z" fill="#B4ECCB"/>
<path d="M0 324.05C41.1 328.551 82.2 333.051 125.85 340.553C169.35 348.204 215.55 358.855 238.5 396.961C261.45 435.067 261.3 500.777 265.8 544.284C270.45 587.641 279.6 608.794 318.75 626.047C357.9 643.449 426.9 656.951 459.75 686.956C492.6 716.961 489.3 763.468 486 810.125H0V324.05Z" fill="#9FE7B5"/>
<path d="M0 445.569C30.75 448.869 61.65 452.32 94.35 458.021C127.05 463.722 161.7 471.673 178.8 500.327C196.05 528.832 196.05 578.189 199.35 610.744C202.8 643.299 209.7 659.052 238.95 672.104C268.35 685.156 320.25 695.207 344.85 717.711C369.45 740.214 367.05 775.17 364.5 810.125H0V445.569Z" fill="#8CE09E"/>
<path d="M0 567.088C20.55 569.338 41.1 571.588 62.85 575.339C84.75 579.089 107.7 584.49 119.25 603.543C130.8 622.596 130.65 655.451 132.9 677.205C135.15 698.808 139.8 709.46 159.3 718.161C178.95 726.712 213.45 733.463 229.95 748.466C246.3 763.468 244.65 786.872 243 810.125H0V567.088Z" fill="#7DDA84"/>
<path d="M0 688.606C10.2 689.657 20.55 690.857 31.5 692.807C42.3 694.607 53.85 697.308 59.55 706.909C65.4 716.361 65.4 732.863 66.45 743.665C67.65 754.467 69.9 759.717 79.65 764.068C89.4 768.419 106.8 771.869 114.9 779.37C123.15 786.872 122.4 798.423 121.5 810.125H0V688.606Z" fill="#76D676"/>
</g>
<defs>
<clipPath id="clip0_6_61">
<rect width="1440" height="810.125" fill="white"/>
</clipPath>
</defs>
</svg>
