<svg width="1440" height="810" viewBox="0 0 1440 810" fill="none" xmlns="http://www.w3.org/2000/svg">
<g clip-path="url(#clip0_6_88)">
<path d="M1440 0H0V810.437H1440V0Z" fill="#D8F3E6"/>
<path d="M728 0C724.175 68.5495 745.062 134.254 726.5 196.5C707.938 258.69 691.481 317.365 660.544 381.581C629.663 445.797 601.144 518.342 538.931 539.222C476.719 560.158 380.869 529.429 321.469 557.119C262.069 584.753 239.231 670.749 191.756 715.942C144.225 761.135 72.1125 765.525 0 769.915V0H728Z" fill="#CBF1DE"/>
<path d="M607 0C603.794 57.1246 613.412 112.61 598 164.5C582.531 216.334 576.225 264.461 550.462 317.984C524.7 371.507 500.962 431.952 449.1 449.342C397.294 466.789 317.362 441.182 267.919 464.257C218.419 487.275 199.35 558.977 159.806 596.628C120.206 634.28 60.075 637.938 0 641.596V0H607Z" fill="#B4ECCB"/>
<path d="M485 0C482.469 45.6997 497.375 90.0777 485 131.5C472.625 172.979 460.969 211.558 440.381 254.387C419.794 297.217 400.781 345.561 359.325 359.519C317.812 373.42 253.913 352.99 214.312 371.394C174.712 389.854 159.469 447.147 127.8 477.314C96.1875 507.424 48.0938 510.35 0 513.277V0H485Z" fill="#9FE7B5"/>
<path d="M364 0C362.087 34.2747 373.281 67.9332 364 99C354.719 130.123 345.713 158.711 330.3 190.79C314.831 222.87 300.6 259.171 269.494 269.639C238.387 280.051 190.406 264.743 160.762 278.531C131.062 292.376 119.588 335.375 95.85 357.999C72.1125 380.568 36.0562 382.763 0 384.958V0H364Z" fill="#8CE09E"/>
<path d="M243 0C241.706 22.8498 248.188 44.7888 242 65.5C235.812 86.2675 230.512 105.807 220.162 127.194C209.869 148.58 200.362 172.781 179.662 179.759C158.906 186.738 126.956 176.495 107.156 185.725C87.3562 194.899 79.7625 223.602 63.9 238.629C48.0937 253.712 24.0188 255.175 0 256.638V0H243Z" fill="#7DDA84"/>
<path d="M122 0.5C121.381 11.9249 125.094 22.6444 122 33C118.906 43.3556 115.256 52.9035 110.081 63.5968C104.962 74.2901 100.181 86.3904 89.8312 89.8797C79.4812 93.3691 63.45 88.2476 53.6063 92.8626C43.7062 97.4776 39.8812 111.773 31.95 119.314C24.0187 126.856 12.0375 127.588 0 128.319V0L122 0.5Z" fill="#76D676"/>
</g>
<defs>
<clipPath id="clip0_6_88">
<rect width="1440" height="810.437" fill="white"/>
</clipPath>
</defs>
</svg>
